HIERARCHY
ROOT hip
{
  OFFSET 0.0 0.0 0.0
  CHANNELS 6 Xposition Yposition Zposition Zrotation Yrotation Xrotation
  JOINT torso
  {
    OFFSET 0.0 0.0 0.0
    CHANNELS 3 Zrotation Xrotation Yrotation
    JOINT neck
    {
      OFFSET -31.42098999999993 328.8025209999999 74.3554680000002
      CHANNELS 3 Zrotation Xrotation Yrotation
      JOINT head
      {
        OFFSET 3.3519900000001144 303.81732099999994 206.53942900000015
        CHANNELS 3 Zrotation Xrotation Yrotation
        End Site
        {
          OFFSET 0.0 0.0 0.0
        }
      }
    }
    JOINT left_collar
    {
      OFFSET -31.42098999999993 328.8025209999999 74.3554680000002
      CHANNELS 3 Zrotation Xrotation Yrotation
      JOINT left_upper_arm
      {
        OFFSET -124.490479 -8.162841999999841 8.226441000000023
        CHANNELS 3 Zrotation Xrotation Yrotation
        JOINT left_forearm
        {
          OFFSET -253.595764 -1.5758060000000569 105.0729980000001
          CHANNELS 3 Zrotation Xrotation Yrotation
          JOINT left_hand
          {
            OFFSET -269.48803699999996 0.1478270000000066 -55.346191999999974
            CHANNELS 3 Zrotation Xrotation Yrotation
            End Site
            {
              OFFSET 0.0 0.0 0.0
            }
          }
        }
      }
    }
    JOINT right_collar
    {
      OFFSET -31.42098999999993 328.8025209999999 74.3554680000002
      CHANNELS 3 Zrotation Xrotation Yrotation
      JOINT right_upper_arm
      {
        OFFSET 162.02484099999998 0.46441600000002836 2.2303470000001653
        CHANNELS 3 Zrotation Xrotation Yrotation
        JOINT right_forearm
        {
          OFFSET 240.01246700000004 -25.835875999999985 121.34179699999959
          CHANNELS 3 Zrotation Xrotation Yrotation
          JOINT right_hand
          {
            OFFSET 252.48539699999992 18.910399999999868 -67.53466800000001
            CHANNELS 3 Zrotation Xrotation Yrotation
            End Site
            {
              OFFSET 0.0 0.0 0.0
            }
          }
        }
      }
    }
  }
}
MOTION
Frames: 16
Frame Time: 0.01
-626.1845013168188 270.93098405903993 1439.0108048909538 -0.3631224999736043 -13.3672844204508 6.048349000109455 5.923546424017617 3.5000307336307785 -0.8349111737105265 1.0626804591261059 3.072442112691199 -0.7412808417479151 0.0 0.0 0.0 -0.29784873536833933 0.3215222675267779 -5.3994302501806875 -3.428606573823628 -4.2958731896692655 -65.21584369512999 -2.584649668728406 0.32475917656668035 -8.685712582685879 0.0 0.0 0.0 -6.218615021705434 -0.8847171769972411 -18.732773581467193 1.5683480312546683 13.183683762304891 77.66093430770191 4.415569706591877 -0.10759662876239588 11.349382248701565 0.0 0.0 0.0
-626.1854571868802 271.0293447625923 1440.0378149561743 -0.31425663026984946 -13.35165709884039 6.0299456690854925 5.905577669766457 3.478569405528867 -0.8344953380857805 1.0083222002909944 3.026745878513229 -0.7048332173289988 0.0 0.0 0.0 -0.29003407443442797 0.3188678638077022 -5.343672398500929 -3.428042755044678 -4.288618752771258 -65.12994785030197 -2.649218214728348 0.32915751888004663 -8.845310738439387 0.0 0.0 0.0 -6.256255080632944 -0.8889846725993904 -18.705863869536476 1.540670943853929 13.179019589781536 77.50395654768765 4.417989290445434 -0.14142873756246463 11.655983236325737 0.0 0.0 0.0
-626.1807915328214 271.12765988840874 1441.0947902902803 -0.2587831591048567 -13.340656637843749 6.011656646298257 5.882006701970536 3.4574648618601165 -0.8329025538343569 0.9558126343767456 2.9891755671537243 -0.6696467336600702 0.0 0.0 0.0 -0.28173729980570733 0.3161824396692284 -5.286687562295484 -3.4297691754182527 -4.285266295903817 -65.05226186198098 -2.714726763529565 0.3336965640049511 -8.996585008443734 0.0 0.0 0.0 -6.2945261135212345 -0.893381756136539 -18.679935624372042 1.5148237581602144 13.172570308646845 77.35240880401881 4.424256487178301 -0.17338865846446164 11.951425504805783 0.0 0.0 0.0
-626.1694646011865 271.22545713917106 1442.1817263938387 -0.19727209708449325 -13.333901960186395 5.993360844356427 5.853332094049085 3.4366341540328262 -0.8302419447885128 0.9051500729915735 2.959338262634364 -0.6357247053291187 0.0 0.0 0.0 -0.27311329323679295 0.3134686996864754 -5.228806507235611 -3.4334802212062874 -4.285288643990959 -64.98178937652044 -2.781230982743279 0.3383699606780995 -9.140481842867056 0.0 0.0 0.0 -6.333106982442014 -0.897849287927156 -18.654776958220676 1.4906177832917429 13.164976627421536 77.2067914974652 4.433995634299209 -0.2034780956801808 12.23490648962596 0.0 0.0 0.0
-626.1502204641121 271.3222507534072 1443.2984324540403 -0.13042959016861738 -13.330925101833426 5.974970959033462 5.820175829144886 3.415989655326851 -0.8266483474951624 0.8563170570399005 2.936698529121191 -0.6030581094212849 0.0 0.0 0.0 -0.26434213101306364 0.3107294763148445 -5.170400061529422 -3.4388274887359533 -4.288091646361581 -64.91738316243934 -2.8487564576437086 0.3431615397159542 -9.278104879657086 0.0 0.0 0.0 -6.3716754045190145 -0.9023285260472452 -18.630186304917856 1.467842658382021 13.156885941744958 77.0675295181391 4.44672275659679 -0.2317298958190428 12.50581080888952 0.0 0.0 0.0
-626.1215968185624 271.41753991805746 1444.444513021173 -0.05908129861118984 -13.331178698282535 5.956443946745321 5.783266456854897 3.395441092740426 -0.8222786779545317 0.8092848259212417 2.9205910692021577 -0.5716285248359887 0.0 0.0 0.0 -0.25562804759492286 0.3079678174197744 -5.11187717013057 -3.4454228094698474 -4.293019370958414 -64.85776885461195 -2.917300430155526 0.34804584667296484 -9.410689518843741 0.0 0.0 0.0 -6.409913980258753 -0.9067623951259847 -18.605979183760827 1.4462687846276727 13.148939903914975 76.93495360590482 4.4618556692930795 -0.25820809718927534 12.76373362297669 0.0 0.0 0.0
-626.0819403198262 271.51080835627175 1445.6193528218369 0.015848836355276348 -13.33404487765485 5.9377894137214335 5.743417770636025 3.3748971414879865 -0.817307457447454 0.7640177619695923 2.9102364948786743 -0.541411121125098 0.0 0.0 0.0 -0.24719701034884756 0.30518708767236674 -5.0536809905921425 -3.4528420177317103 -4.299360599451508 -64.80157141128694 -2.9868348446997635 0.3529889377638507 -9.539574775982597 0.0 0.0 0.0 -6.447515647061658 -0.9110966330522501 -18.58199398819404 1.4256496897986635 13.141762705467173 76.80928228368823 4.4787262161288535 -0.2830078579454169 13.008501574285692 0.0 0.0 0.0
-626.02942731856 271.60152529500465 1446.8221056117397 0.09336367393654553 -13.338845263423677 5.919075589517776 5.7015036931273135 3.354266483334105 -0.8119216503893961 0.7204777416445083 2.9047596532229045 -0.5123776446768686 0.0 0.0 0.0 -0.2392927419379306 0.3023910970182869 -4.996283129443415 -3.4606294864381915 -4.306356718419829 -64.74734349466723 -3.057310367915876 0.35794939518731345 -9.666173257480063 0.0 0.0 0.0 -6.484188293228512 -0.9152807690516407 -18.55809673750485 1.4057243512955715 13.135950288211408 76.69060522564862 4.496594055200328 -0.3062552456003277 13.24019048605725 0.0 0.0 0.0
-625.9620896348583 271.689147961784 1448.0516878308779 0.1724209815898395 -13.34485178592461 5.900432647066292 5.65843014298734 3.333458272217396 -0.8063149769548235 0.6786283137384567 2.903209879910989 -0.48449934127086075 0.0 0.0 0.0 -0.23217112284147326 0.2995842644016765 -4.940176201758301 -3.468303453650829 -4.3132110780707205 -64.69359494048298 -3.1286609930312435 0.36287951022978565 -9.791940140568574 0.0 0.0 0.0 -6.519658315719031 -0.9192688941063111 -18.5341847510254 1.386219509283964 13.132060650516712 76.5788688894986 4.514661371160469 -0.32810684619413943 13.459139087373394 0.0 0.0 0.0
-625.8778447569866 271.7731257189008 1449.3067776716134 0.25196372709157727 -13.351298014677003 5.88205323565285 5.615104719385831 3.3123819865843074 -0.8006818690513712 0.6384386068353796 2.9045825328748878 -0.4577497414858546 0.0 0.0 0.0 -0.22609302938091394 0.2967718174255928 -4.885864963918594 -3.475362154928855 -4.3190998523790345 -64.6388224795074 -3.200808826470631 0.3677265785934221 -9.918342039945127 0.0 0.0 0.0 -6.553672973252104 -0.9230201950185487 -18.5101892124231 1.36685199899433 13.130605362647785 76.4738651182906 4.532087908331016 -0.34874912928296387 13.665958156306386 0.0 0.0 0.0
-625.7745296063882 271.85290590234007 1450.5858200067917 0.33095167748237553 -13.357390751992748 5.86419021552615 5.57240512154205 3.2909466830903105 -0.7952112480854197 0.5998868488828732 2.9078411763590823 -0.43210722266699114 0.0 0.0 0.0 -0.2213158030907445 0.2939600198212846 -4.833856320906122 -3.4812907574252194 -4.323184376141054 -64.58153891032055 -3.273668681412994 0.37243425233533173 -10.046826605227935 0.0 0.0 0.0 -6.586001467146002 -0.9264992349780105 -18.486076580801225 1.3473311225733582 13.132042350577663 76.37522323522586 4.548005782136649 -0.3683974858210763 13.861534611401755 0.0 0.0 0.0
-625.6499367773483 271.92794138928014 1451.887037434244 0.40839336039946383 -13.362321672474689 5.847151719773558 5.531147331120164 3.2690597094922555 -0.7900803179839647 0.5629633657320778 2.9119398294658168 -0.4075572510781906 0.0 0.0 0.0 -0.21808368994790875 0.291156410034805 -4.784648545271103 -3.4855690604837615 -4.324624856049028 -64.52030099243342 -3.3471521589550033 0.37694389584314886 -10.178793624891991 0.0 0.0 0.0 -6.616434771160667 -0.9296759761342214 -18.46184878703957 1.3273610714807327 13.136769954099302 76.28240594992437 4.5615336205750445 -0.38729484198621905 14.04703021324287 0.0 0.0 0.0
-625.5018519605801 271.9976998729901 1453.2084474765413 0.48337735781399477 -13.365278850680328 5.831293811392265 5.492054706237784 3.246624987269387 -0.785448583385704 0.527672916597951 2.9158447531593312 -0.3840942027483186 0.0 0.0 0.0 -0.21661771465834626 0.2883700275757524 -4.738720067094713 -3.4876798887488234 -4.3225952631703715 -64.45373541992312 -3.4211709719092767 0.38119589866915443 -10.315568325694004 0.0 0.0 0.0 -6.64478432691173 -0.9325255547018685 -18.437542157721182 1.3066434093947144 13.145122213906522 76.19470921961792 4.571789693064043 -0.40570974544530714 14.223874652020545 0.0 0.0 0.0
-625.3280911193659 272.06167477146647 1454.5478857452226 0.5551018092623251 -13.365458086561862 5.817011143239344 5.455729250648395 3.2235410335428267 -0.7814523180142293 0.49403622625710786 2.918555318905053 -0.36172266358058686 0.0 0.0 0.0 -0.21710555111595972 0.28561160009740755 -4.696518205615754 -3.487118063165143 -4.316299123644122 -64.38056233502064 -3.4956393503551544 0.3851309051166856 -10.45837746462604 0.0 0.0 0.0 -6.670879818618547 -0.935027836808578 -18.413225053023435 1.2848796361180956 13.157365297446729 76.11126609349706 4.5779037886033 -0.4239338234084493 14.393752898888707 0.0 0.0 0.0
-625.1265359251335 272.1193976248576 1455.9030346505494 0.6229008997611126 -13.362074009288865 5.8047261616681824 5.422626425389775 3.1996989527252504 -0.7781997216325367 0.4620905913560858 2.9191235734693923 -0.3404581215990529 0.0 0.0 0.0 -0.21969200602306876 0.2828936638999357 -4.658448217778511 -3.4833997967524835 -4.304985841895131 -64.29961594465492 -3.5704754507660548 0.38869092836599867 -10.608328714790298 0.0 0.0 0.0 -6.694566329207051 -0.9371668012600373 -18.38899427626666 1.2617738673370276 13.17369494081788 76.03105449189029 4.5790277088489395 -0.4422785250815234 14.55858680737599 0.0 0.0 0.0
-624.8951659942879 272.17045173969314 1457.2714570309136 0.686267013533532 -13.354371002573835 5.794877513723665 5.393034940989946 3.1749806800861156 -0.7757670127071015 0.43188947688210155 2.9166721810580802 -0.32032699019497796 0.0 0.0 0.0 -0.22447074136409728 0.28023059402518935 -4.624863043943646 -3.47607232967258 -4.287967125288603 -64.20986191239776 -3.645601759391678 0.39182032485433305 -10.766393736607672 0.0 0.0 0.0 -6.71570124561211 -0.9389298102667057 -18.36497038829983 1.2370356732144308 13.194234767681545 75.95290879618015 4.574344349857326 -0.46107108419004084 14.720511080578733 0.0 0.0 0.0
